Patient4_TMGait_0pt4_03_right_42_EMG.mot
version=1
nRows=23
nColumns=33
inDegrees=no
endheader
time	1LAddLong	2LGlutMax	3LGlutMed	4LIliopsoas	5LSemiMemb	6LBicFemLong	7LRecFem	8LVastMed	9LVastLat	10LGasMed	11LTibAnt	12lTibPost	13LPeroneusLong	14LSol	15LExtDigLong	16LFlexDigLong	17RAddLong	18RGlutMax	19RGlutMed	20RIliopsoas	21RSemiMemb	22RBicFemLong	23RRecFem	24RVastMed	25RVastLat	26RGasMed	27RTibAnt	28RTibPost	29RPeroneusLong	30RSol	31RExtDigLong	32RFlexDigLong
55.46	-0.017242	-0.13031	-0.049438	0.022278	0.002289	-0.057526	0.29343	0.005951	0.14664	0.005646	-0.013885	-0.011749	-0.006561	0.15442	0.000305	0.017242	-0.096436	-0.89768	-0.8107	0.052032	-0.044556	-0.12695	0.29755	-0.028076	-0.097504	0.018158	0.034027	-0.017242	-0.061646	-0.25375	-0.004272	0.002441
55.461	-0.018616	-0.12238	-0.039215	0.01358	0	-0.043488	0.2742	0.002747	0.15411	0.009308	-0.010681	-0.014038	-0.018158	0.17975	-0.000153	0.011139	-0.12543	-1.0037	-0.8757	-0.098267	0.26627	0.084839	0.22751	0.092773	-0.090485	0.0383	0.052948	0.025482	-0.15121	-0.43732	-0.006409	-0.008087
55.462	-0.001831	-0.083618	-0.021667	-0.000916	0.002441	-0.041199	0.25299	0.001526	0.15396	-0.00412	-0.010223	-0.005188	-0.031738	0.19745	-0.001221	0.010986	-0.12711	-1.1101	-0.48416	-0.17746	0.22873	0.10681	0.16754	0.077209	-0.044861	0.003052	0.019379	-0.1059	-0.89676	-0.34225	-0.001984	-0.007935
55.463	-0.009155	-0.076141	-0.011597	-0.019073	-0.000305	-0.037384	0.21866	-0.001984	0.17349	-0.020905	-0.016785	-0.012207	-0.032196	0.17395	-0.015717	0.014038	-0.08667	-1.194	-0.13168	-0.12589	0.20996	-0.003204	0.23468	0.025177	0.041656	-0.014191	-0.087738	-0.065613	-0.47638	-0.4216	-0.006104	-0.003357
55.464	-0.007935	-0.071259	-0.028229	-0.015869	0.005188	-0.056458	0.12741	-0.001984	0.18784	-0.027466	-0.012512	0.000305	-0.027466	0.15366	-0.040588	0.01709	-0.073853	-1.2741	-0.63446	-0.05188	0.17868	-0.018921	0.34744	0.43945	0.010529	-0.060425	-0.099182	0.053406	-0.57739	-0.23529	0.000305	0.00061
55.465	-0.005646	-0.057983	-0.023956	-0.007629	0.00473	-0.040741	0.063477	-0.000763	0.19867	-0.029449	-0.039825	-0.003052	-0.011444	0.1149	-0.011902	0.013428	-0.052032	-1.3182	-1.1375	0.015411	0.1355	-0.077057	0.43655	0.93094	-0.024414	-0.028076	-0.060883	-0.024414	0.87509	0.48294	-0.005951	-0.004578
55.466	-0.007935	-0.043335	-0.026245	-0.01297	0.003204	-0.051117	0.040741	-0.002289	0.20218	-0.024261	-0.042725	-0.00473	-0.009308	0.14771	0.024414	0.000458	-0.034485	-1.4095	-0.40558	0.009766	0.1033	-0.16403	0.55817	0.63705	-0.048676	0.003204	0.005493	0.016632	0.69687	0.63767	-0.012207	0.005798
55.467	-0.009308	-0.042725	-0.032654	0.004883	0.009766	-0.02594	0.093842	-0.00061	0.18768	-0.015564	-0.025787	0.001221	-0.043488	0.13489	0.039063	0.009766	0.00061	-1.3644	-0.35996	-0.053406	0.072021	-0.16251	0.74875	0.16708	-0.10422	0.003815	0.017853	0.016937	0.28259	0.5455	-0.006256	0.008087
55.468	-0.007782	-0.045624	-0.049438	0.000305	0.008392	-0.03952	0.1181	0.002899	0.18219	-0.023804	-0.017242	-0.005493	-0.032196	0.11185	0.055847	0.002289	0.019836	-1.3571	-0.63049	-0.11169	0.089111	-0.059814	0.62759	-0.31418	-0.1152	-0.016632	-0.00351	-0.002289	0.58701	0.10178	0.000153	0.005646
55.469	-0.009918	-0.051727	-0.090332	0.000153	0.006409	-0.023499	0.090332	-0.000153	0.1828	-0.02594	0.00412	-0.001678	-0.02243	0.10239	0.066833	0.013885	0.010376	-1.3344	-0.41596	-0.09552	0.12604	-0.0354	0.43167	-0.45959	-0.029144	-0.016937	0.032654	0.009155	0.12543	-0.13672	-0.008392	-0.00412
55.47	-0.005798	-0.023651	-0.13962	0.017242	0.014954	-0.043182	0.079651	0.009766	0.18982	-0.024567	0.021973	-0.000458	-0.035553	0.10574	0.038452	0.015411	-0.012054	-1.424	-0.3241	-0.18753	0.081024	0.080414	0.39627	-0.6247	-0.021667	-0.014038	0.060425	-0.000458	-0.43579	0.004425	-0.006256	-0.005646
55.471	-0.008087	-0.017395	-0.12985	-0.018921	0.006561	-0.050812	0.04715	0.005646	0.2005	-0.029297	0.017853	-0.005951	-0.029297	0.10819	-0.041046	0.011444	-0.048218	-1.4685	-0.44083	-0.26093	-0.070648	0.14008	0.37506	-0.41	0.059052	-0.010376	0.11475	0.012817	-0.66559	0.26123	-0.001526	-0.013123
55.472	-0.005646	0.026398	-0.11551	0.008087	0.002441	-0.035553	0.041351	0.005035	0.23346	-0.050049	0.033112	-0.006714	0.012207	0.12802	-0.059662	0.002747	-0.058289	-1.5178	-0.80933	-0.327	-0.050354	0.010376	0.23941	-0.31937	0.1091	-0.00885	0.15152	0.021057	-0.23773	0.36453	0.000458	-0.00061
55.473	-0.004578	0.034943	-0.095062	-0.006409	0.005493	-0.05661	0.016174	0.005493	0.24658	-0.039673	-0.019684	-0.005188	-0.002441	0.13138	-0.042267	-0.001373	-0.054016	-1.5834	-1.2617	-0.11414	-0.076752	-0.058441	0.043945	-0.25406	0.15152	-0.010986	0.1149	0.019379	1.2256	0.1741	-0.009308	-0.007935
55.474	-0.001068	0.0383	-0.077515	0.000153	0.010376	-0.044403	-0.015411	0.008545	0.22949	-0.023804	-0.026245	-0.007629	-0.018005	0.12436	-0.037994	-0.004883	-0.054321	-1.5746	-1.6826	0.22919	-0.021362	-0.017395	0.07782	-0.034637	0.2066	-0.034332	0.14175	0.026855	2.2102	0.071869	-0.005798	-0.007019
55.475	-0.00061	0.062561	-0.065765	0.003204	0.006256	-0.046387	-0.007019	-0.000763	0.24246	-0.027466	-0.023804	-0.002899	-0.033417	0.1387	0.015717	-0.001221	-0.024414	-1.6106	-1.5025	0.36057	0.038452	-0.032349	0.1651	0.11993	0.11963	-0.018921	0.17349	-0.080872	1.9589	0.007477	-0.005188	-0.007629
55.476	0.000916	0.024109	-0.040588	0.004272	0.007477	-0.039063	0.090637	-0.004578	0.23682	-0.020905	-0.022888	-0.006866	-0.03418	0.13275	0.03952	-0.010681	-0.02182	-1.6617	-1.2979	0.19608	-0.08728	-0.018311	0.2359	0.11154	-0.008392	0.001221	0.11093	0.005188	0.12573	-0.041962	-0.006714	-0.006409
55.477	0.002441	0.018158	-0.029449	0.018158	0.002136	-0.042267	0.14618	-0.003662	0.21927	-0.024872	-0.012054	-0.007019	-0.026855	0.12344	0.046234	-0.015717	0.005951	-1.6382	-0.70404	-0.10803	-0.32349	0.005951	0.21149	0.075684	-0.058289	0.005798	-0.038452	0.001831	-1.9467	-0.13062	-0.011444	-0.002594
55.478	0.001984	0.030975	0.010071	0.002594	0.015717	-0.033417	0.21713	-0.004883	0.19501	-0.037231	-0.002289	-0.008087	-0.022736	0.13672	0.051575	-0.01236	0.0177	-1.5762	-0.87906	-0.1001	-0.12146	-0.18448	-0.092316	-0.048981	-0.025024	0.006714	-0.12787	-0.005493	-1.1861	-0.086517	-0.001984	-0.004578
55.479	-0.007019	0.025177	0.027771	0.012207	0.005341	-0.04364	0.23086	-0.003662	0.18997	-0.037231	0.007782	-0.010834	-0.021362	0.12772	0.026093	0.002441	0.009308	-1.4108	-0.55634	0.12222	0.059662	-0.17014	-0.2475	-0.082855	-0.039368	-0.00061	0.047455	-0.018158	-1.0289	0.05249	-0.005951	-0.004272
55.48	-0.001068	-0.018768	0.008698	-0.00946	0.015106	-0.038147	0.16022	0.015259	0.15213	-0.028687	0.004883	-0.009003	-0.035248	0.11215	0.01709	-0.035095	0.015869	-1.2616	-0.010223	0.32959	0.121	-0.020599	-0.11597	-0.025482	-0.028381	-0.007935	0.12497	-0.013733	-1.1139	0.091858	-0.004578	0.005341
55.481	-0.007629	-0.005035	0.006409	0.010986	0.01236	-0.058289	0.15396	0.058899	0.1532	-0.035248	0.003662	-0.013123	-0.034027	0.10941	0.075226	0.006866	0.001831	-1.2592	0.10239	0.24124	0.023193	0.1033	-0.02121	0.079498	0.012512	0.009308	0.23636	-0.011292	0.04303	-0.044861	-0.003357	0.007477
55.482	-0.012512	-0.02533	0.015411	0.016479	0.002136	-0.040588	0.13931	0.003815	0.15671	-0.041656	0.00473	0.002441	-0.025177	0.11414	0.015106	0.000916	-0.006104	-1.2186	-0.78064	0.11459	-0.060883	0.10056	-0.046082	0.035095	-0.016327	0.01236	0.13428	-0.002899	0.73517	-0.22049	-0.004883	0.009918
